<svg width="25" height="20" viewBox="0 0 25 20" fill="none" xmlns="http://www.w3.org/2000/svg">
<path d="M3.03785 0.639542C2.71833 0.959062 2.71833 1.47711 3.03785 1.79663L20.4614 19.2202C20.7809 19.5397 21.299 19.5397 21.6185 19.2202C21.938 18.9007 21.938 18.3826 21.6185 18.0631L4.19494 0.639542C3.87542 0.320022 3.35737 0.320022 3.03785 0.639542Z" fill="#2B2B2B"/>
<path d="M0.5 9.82897C0.5 9.13557 1.88917 7.10231 4.12612 5.27112L5.26046 6.45787C5.19343 6.5119 5.12704 6.56628 5.06133 6.62095C4.06792 7.4475 3.27754 8.30281 2.74963 9.00301C2.48441 9.35477 2.30377 9.64315 2.19768 9.84856C2.17976 9.88324 2.16542 9.91276 2.15403 9.93736L2.15608 9.94604C2.17507 10.0251 2.20878 10.1311 2.26456 10.2642C2.37729 10.533 2.56129 10.8671 2.82798 11.2497C3.36163 12.0151 4.16361 12.8844 5.17851 13.7031C7.22513 15.3541 9.94174 16.6472 12.7727 16.6472C13.4591 16.6472 14.1315 16.5669 14.7836 16.4211L16.0721 17.7692C15.031 18.0939 13.925 18.2835 12.7727 18.2835C6.14531 18.2835 0.5 12.2835 0.5 9.82897Z" fill="#2B2B2B"/>
<path d="M8.13636 10.3744C8.13636 10.091 8.16179 9.81358 8.21048 9.54422L13.3959 14.9693C13.1921 14.9966 12.9841 15.0108 12.7727 15.0108C10.2121 15.0108 8.13636 12.935 8.13636 10.3744Z" fill="#2B2B2B"/>
<path d="M11.6553 5.87361L17.2186 11.694C17.3426 11.2758 17.4091 10.8329 17.4091 10.3744C17.4091 7.81383 15.3333 5.73806 12.7727 5.73806C12.3875 5.73806 12.0132 5.78505 11.6553 5.87361Z" fill="#2B2B2B"/>
<path d="M20.0439 13.6431C19.8706 13.7948 19.6918 13.9438 19.508 14.0892L20.643 15.2767C23.0301 13.3508 24.5 11.0003 24.5 9.82897C24.5 7.91988 19.1274 1.91988 12.5 1.91988C11.1278 1.91988 9.80938 2.20048 8.58131 2.65759L9.82975 3.96372C10.693 3.70495 11.5887 3.55624 12.5 3.55624C15.3272 3.55624 17.9768 4.84606 19.9626 6.4359C20.9472 7.22425 21.7222 8.05049 22.2358 8.75325C22.4931 9.10533 22.6669 9.40208 22.7701 9.62605C22.8258 9.7468 22.8496 9.82174 22.8592 9.85582C22.8506 9.90527 22.8248 10.0207 22.749 10.21C22.6447 10.4702 22.4743 10.7991 22.2276 11.1787C21.7342 11.9377 20.9914 12.8139 20.0439 13.6431Z" fill="#2B2B2B"/>
</svg>
